<svg width="299" height="227" viewBox="0 0 299 227" fill="none" xmlns="http://www.w3.org/2000/svg">
<path d="M186.711 74.1418V60.0031M282.298 1.00861H195.696C187.02 1.00861 179.985 8.04362 179.985 16.7107V210.118C179.985 218.793 187.02 225.82 195.696 225.82H282.298C290.974 225.82 298 218.785 298 210.118V16.7107C298 8.03503 290.965 1.00861 282.298 1.00861Z" stroke="white" stroke-miterlimit="10"/>
<path d="M263.426 1L262.344 6.54898C261.889 8.88539 259.827 10.5862 257.448 10.5862H220.761C218.433 10.5862 216.432 8.99708 215.899 6.72938L214.559 1H263.426" stroke="white" stroke-miterlimit="10"/>
<path d="M261.949 7.73438H282.298" stroke="white" stroke-miterlimit="10" stroke-linecap="round" stroke-linejoin="round"/>
<path d="M206.407 219.085H282.298C287.246 219.085 291.274 215.057 291.274 210.109V16.7107C291.274 11.763 287.246 7.73438 282.298 7.73438" stroke="white" stroke-miterlimit="10" stroke-linecap="round" stroke-linejoin="round"/>
<path d="M216.251 7.73438H195.687C190.731 7.73438 186.711 11.7544 186.711 16.7107V60.0031V74.1418V210.118C186.711 215.065 190.74 219.094 195.687 219.094H206.399" stroke="white" stroke-miterlimit="10" stroke-linecap="round" stroke-linejoin="round"/>
<path d="M186.694 190.877V210.101C186.694 215.048 190.723 219.068 195.67 219.068H282.246C287.194 219.068 291.214 215.04 291.214 210.101V190.877H186.694Z" stroke="white" stroke-miterlimit="10" stroke-linecap="round" stroke-linejoin="round"/>
<path d="M210.779 214.868H199.381C197.019 214.868 195.086 212.935 195.086 210.573V199.149C195.086 196.786 197.019 194.854 199.381 194.854H210.779C213.142 194.854 215.074 196.786 215.074 199.149V210.564C215.074 212.935 213.142 214.868 210.779 214.868Z" stroke="white" stroke-miterlimit="10"/>
<path d="M244.22 214.868H232.821C230.459 214.868 228.526 212.935 228.526 210.573V199.149C228.526 196.786 230.459 194.854 232.821 194.854H244.22C246.582 194.854 248.514 196.786 248.514 199.149V210.564C248.514 212.935 246.582 214.868 244.22 214.868Z" stroke="white" stroke-miterlimit="10"/>
<path d="M277.651 214.868H266.252C263.89 214.868 261.957 212.935 261.957 210.573V199.149C261.957 196.786 263.89 194.854 266.252 194.854H277.651C280.013 194.854 281.946 196.786 281.946 199.149V210.564C281.946 212.935 280.013 214.868 277.651 214.868Z" stroke="white" stroke-miterlimit="10"/>
<path d="M210.762 81.3229H199.364C197.002 81.3229 195.069 79.3902 195.069 77.028V65.6122C195.069 63.25 197.002 61.3173 199.364 61.3173H210.762C213.125 61.3173 215.057 63.25 215.057 65.6122V77.028C215.057 79.3902 213.125 81.3229 210.762 81.3229Z" stroke="white" stroke-miterlimit="10"/>
<path d="M280.305 81.2197H268.906C266.544 81.2197 264.612 79.287 264.612 76.9248V65.5091C264.612 63.1469 266.544 61.2142 268.906 61.2142H280.305C282.667 61.2142 284.6 63.1469 284.6 65.5091V76.9248C284.6 79.287 282.667 81.2197 280.305 81.2197Z" stroke="white" stroke-miterlimit="10"/>
<path d="M285.279 57.3058C282.908 57.3058 280.984 59.23 280.984 61.6007C280.984 63.9715 282.908 65.8956 285.279 65.8956C287.649 65.8956 289.573 63.9715 289.573 61.6007C289.573 59.2214 287.649 57.3058 285.279 57.3058ZM285.614 63.7997C285.614 63.9715 285.476 64.1175 285.296 64.1175C285.115 64.1175 284.978 63.9801 284.978 63.7997V60.3982L284.385 60.9909C284.265 61.1111 284.059 61.1111 283.939 60.9909C283.818 60.8706 283.818 60.6645 283.939 60.5442L285.072 59.4103C285.158 59.3245 285.296 59.2901 285.416 59.3416C285.536 59.3932 285.614 59.5048 285.614 59.6337V63.7997Z" fill="#F5B908"/>
<path d="M210.762 125.286H199.364C197.002 125.286 195.069 123.353 195.069 120.991V109.575C195.069 107.213 197.002 105.28 199.364 105.28H210.762C213.125 105.28 215.057 107.213 215.057 109.575V120.991C215.057 123.353 213.125 125.286 210.762 125.286Z" stroke="white" stroke-miterlimit="10"/>
<path d="M280.305 125.174H268.906C266.544 125.174 264.612 123.241 264.612 120.879V109.463C264.612 107.101 266.544 105.168 268.906 105.168H280.305C282.667 105.168 284.6 107.101 284.6 109.463V120.879C284.6 123.241 282.667 125.174 280.305 125.174Z" stroke="white" stroke-miterlimit="10"/>
<path d="M210.762 163.39H199.364C197.002 163.39 195.069 161.457 195.069 159.095V147.679C195.069 145.317 197.002 143.384 199.364 143.384H210.762C213.125 143.384 215.057 145.317 215.057 147.679V159.095C215.057 161.457 213.125 163.39 210.762 163.39Z" stroke="white" stroke-miterlimit="10"/>
<path d="M280.305 163.286H268.906C266.544 163.286 264.612 161.354 264.612 158.991V147.576C264.612 145.213 266.544 143.281 268.906 143.281H280.305C282.667 143.281 284.6 145.213 284.6 147.576V158.991C284.6 161.354 282.667 163.286 280.305 163.286Z" stroke="white" stroke-miterlimit="10"/>
<path d="M209.903 41.3718H200.223C197.388 41.3718 195.069 39.0526 195.069 36.218V26.5201C195.069 23.6855 197.388 21.3663 200.223 21.3663H209.903C212.738 21.3663 215.057 23.6855 215.057 26.5201V36.218C215.057 39.0526 212.738 41.3718 209.903 41.3718Z" stroke="white" stroke-miterlimit="10"/>
<path d="M215.968 17.8016C213.597 17.8016 211.673 19.7257 211.673 22.0965C211.673 24.4672 213.597 26.3913 215.968 26.3913C218.338 26.3913 220.262 24.4672 220.262 22.0965C220.262 19.7257 218.338 17.8016 215.968 17.8016ZM216.294 24.304C216.294 24.4758 216.157 24.6218 215.976 24.6218C215.804 24.6218 215.658 24.4844 215.658 24.304V20.9025L215.066 21.4952C214.945 21.6154 214.739 21.6154 214.619 21.4952C214.499 21.3749 214.499 21.1688 214.619 21.0485L215.753 19.9146C215.839 19.8288 215.976 19.7944 216.096 19.8459C216.217 19.8975 216.294 20.0091 216.294 20.138V24.304Z" fill="#F5B908"/>
<path d="M245.13 41.2688H235.449C232.615 41.2688 230.296 38.9496 230.296 36.1149V26.4085C230.296 23.5739 232.615 21.2546 235.449 21.2546H245.13C247.965 21.2546 250.284 23.5739 250.284 26.4085V36.1063C250.284 38.9496 247.965 41.2688 245.13 41.2688Z" stroke="white" stroke-miterlimit="10"/>
<path d="M279.446 41.2688H269.765C266.931 41.2688 264.612 38.9496 264.612 36.1149V26.4085C264.612 23.5739 266.931 21.2546 269.765 21.2546H279.446C282.281 21.2546 284.6 23.5739 284.6 26.4085V36.1063C284.6 38.9496 282.281 41.2688 279.446 41.2688Z" stroke="white" stroke-miterlimit="10"/>
<path d="M30.9181 41.3718H21.2374C18.4028 41.3718 16.0836 39.0526 16.0836 36.218V26.5201C16.0836 23.6855 18.4028 21.3663 21.2374 21.3663H30.9181C33.7527 21.3663 36.072 23.6855 36.072 26.5201V36.218C36.072 39.0526 33.7527 41.3718 30.9181 41.3718Z" stroke="white" stroke-miterlimit="10"/>
<path d="M36.9826 17.8016C34.6119 17.8016 32.6877 19.7257 32.6877 22.0965C32.6877 24.4672 34.6119 26.3913 36.9826 26.3913C39.3534 26.3913 41.2775 24.4672 41.2775 22.0965C41.2775 19.7257 39.3534 17.8016 36.9826 17.8016ZM37.309 24.304C37.309 24.4758 37.1716 24.6218 36.9912 24.6218C36.8108 24.6218 36.6734 24.4844 36.6734 24.304V20.9025L36.0807 21.4952C35.9604 21.6154 35.7542 21.6154 35.634 21.4952C35.5137 21.3749 35.5137 21.1688 35.634 21.0485L36.7679 19.9146C36.8538 19.8288 36.9912 19.7944 37.1115 19.8459C37.2317 19.8975 37.309 20.0091 37.309 20.138V24.304Z" fill="#F5B908"/>
<path d="M67.0037 41.2688H55.6051C53.2429 41.2688 51.3102 39.3361 51.3102 36.9739V25.5495C51.3102 23.1873 53.2429 21.2546 55.6051 21.2546H67.0037C69.3659 21.2546 71.2986 23.1873 71.2986 25.5495V36.9653C71.2986 39.3361 69.3659 41.2688 67.0037 41.2688Z" stroke="white" stroke-miterlimit="10"/>
<path d="M101.32 41.2688H89.9212C87.559 41.2688 85.6263 39.3361 85.6263 36.9739V25.5495C85.6263 23.1873 87.559 21.2546 89.9212 21.2546H101.32C103.682 21.2546 105.615 23.1873 105.615 25.5495V36.9653C105.615 39.3361 103.682 41.2688 101.32 41.2688Z" stroke="white" stroke-miterlimit="10"/>
<path d="M7.72574 74.1413V60.0025M103.313 1.00806H16.7107C8.03499 1.00806 1 8.04307 1 16.7101V210.117C1 218.793 8.03499 225.819 16.7107 225.819H103.313C111.988 225.819 119.015 218.784 119.015 210.117V16.7101C119.015 8.03448 111.98 1.00806 103.313 1.00806Z" stroke="white" stroke-miterlimit="10"/>
<path d="M84.441 1L83.3587 6.54898C82.9034 8.88539 80.8418 10.5862 78.4625 10.5862H41.7756C39.4478 10.5862 37.4464 8.99708 36.9138 6.72938L35.5739 1H84.441" stroke="white" stroke-miterlimit="10"/>
<path d="M82.9636 7.73438H103.313" stroke="white" stroke-miterlimit="10" stroke-linecap="round" stroke-linejoin="round"/>
<path d="M27.4221 219.085H103.313C108.26 219.085 112.289 215.057 112.289 210.109V16.7107C112.289 11.763 108.26 7.73438 103.313 7.73438" stroke="white" stroke-miterlimit="10" stroke-linecap="round" stroke-linejoin="round"/>
<path d="M37.2659 7.73438H16.702C11.7543 7.73438 7.72571 11.7544 7.72571 16.7107V60.0031V74.1418V210.118C7.72571 215.065 11.7543 219.094 16.702 219.094H27.4135" stroke="white" stroke-miterlimit="10" stroke-linecap="round" stroke-linejoin="round"/>
<path d="M7.70862 190.877V210.101C7.70862 215.048 11.7372 219.068 16.6849 219.068H103.261C108.209 219.068 112.229 215.04 112.229 210.101V190.877H7.70862Z" stroke="white" stroke-miterlimit="10" stroke-linecap="round" stroke-linejoin="round"/>
<path d="M31.7943 214.868H20.3957C18.0335 214.868 16.1008 212.935 16.1008 210.573V199.149C16.1008 196.786 18.0335 194.854 20.3957 194.854H31.7943C34.1565 194.854 36.0892 196.786 36.0892 199.149V210.564C36.0892 212.935 34.1565 214.868 31.7943 214.868Z" stroke="white" stroke-miterlimit="10"/>
<path d="M65.2343 214.868H53.8357C51.4735 214.868 49.5408 212.935 49.5408 210.573V199.149C49.5408 196.786 51.4735 194.854 53.8357 194.854H65.2343C67.5965 194.854 69.5292 196.786 69.5292 199.149V210.564C69.5292 212.935 67.5965 214.868 65.2343 214.868Z" stroke="white" stroke-miterlimit="10"/>
<path d="M98.6656 214.868H87.2669C84.9047 214.868 82.972 212.935 82.972 210.573V199.149C82.972 196.786 84.9047 194.854 87.2669 194.854H98.6656C101.028 194.854 102.96 196.786 102.96 199.149V210.564C102.96 212.935 101.028 214.868 98.6656 214.868Z" stroke="white" stroke-miterlimit="10"/>
<path d="M31.7771 81.3231H20.3784C18.0163 81.3231 16.0836 79.3904 16.0836 77.0282V65.6124C16.0836 63.2503 18.0163 61.3176 20.3784 61.3176H31.7771C34.1393 61.3176 36.072 63.2503 36.072 65.6124V77.0282C36.072 79.3904 34.1393 81.3231 31.7771 81.3231Z" stroke="white" stroke-miterlimit="10"/>
<path d="M101.32 81.2197H89.9212C87.559 81.2197 85.6263 79.287 85.6263 76.9248V65.5091C85.6263 63.1469 87.559 61.2142 89.9212 61.2142H101.32C103.682 61.2142 105.615 63.1469 105.615 65.5091V76.9248C105.615 79.287 103.682 81.2197 101.32 81.2197Z" stroke="white" stroke-miterlimit="10"/>
<path d="M31.7771 125.286H20.3784C18.0163 125.286 16.0836 123.353 16.0836 120.991V109.575C16.0836 107.213 18.0163 105.28 20.3784 105.28H31.7771C34.1393 105.28 36.072 107.213 36.072 109.575V120.991C36.072 123.353 34.1393 125.286 31.7771 125.286Z" stroke="white" stroke-miterlimit="10"/>
<path d="M101.32 125.174H89.9212C87.559 125.174 85.6263 123.241 85.6263 120.879V109.463C85.6263 107.101 87.559 105.168 89.9212 105.168H101.32C103.682 105.168 105.615 107.101 105.615 109.463V120.879C105.615 123.241 103.682 125.174 101.32 125.174Z" stroke="white" stroke-miterlimit="10"/>
<path d="M31.7771 163.389H20.3784C18.0163 163.389 16.0836 161.457 16.0836 159.095V147.679C16.0836 145.317 18.0163 143.384 20.3784 143.384H31.7771C34.1393 143.384 36.072 145.317 36.072 147.679V159.095C36.072 161.457 34.1393 163.389 31.7771 163.389Z" stroke="white" stroke-miterlimit="10"/>
<path d="M101.32 163.286H89.9212C87.559 163.286 85.6263 161.354 85.6263 158.991V147.576C85.6263 145.213 87.559 143.281 89.9212 143.281H101.32C103.682 143.281 105.615 145.213 105.615 147.576V158.991C105.615 161.354 103.682 163.286 101.32 163.286Z" stroke="white" stroke-miterlimit="10"/>
<path d="M106.817 139.244C104.446 139.244 102.522 141.168 102.522 143.538C102.522 145.909 104.446 147.833 106.817 147.833C109.188 147.833 111.112 145.909 111.112 143.538C111.112 141.168 109.188 139.244 106.817 139.244ZM107.144 145.746C107.144 145.918 107.006 146.064 106.826 146.064C106.645 146.064 106.508 145.926 106.508 145.746V142.344L105.915 142.937C105.795 143.057 105.589 143.057 105.469 142.937C105.348 142.817 105.348 142.611 105.469 142.491L106.602 141.357C106.688 141.271 106.826 141.236 106.946 141.288C107.066 141.339 107.144 141.451 107.144 141.58V145.746Z" fill="#F5B908"/>
<path d="M74.6316 111.009C73.18 111.009 71.7455 110.846 70.3196 110.519C56.8852 107.436 52.7363 91.1667 52.3068 89.3199L67.5622 85.781L59.9345 87.5505L67.5536 85.738C68.2837 88.7272 70.8693 94.594 73.8414 95.264C76.4784 95.8567 82.6372 92.7472 91.2957 82.0272L103.476 91.8711C93.0996 104.704 83.6165 111.009 74.6316 111.009Z" fill="white" stroke="#333333" stroke-miterlimit="10" stroke-linecap="round"/>
<path d="M78.7031 219.094L75.5248 199.02L64.8907 131.71H30.231L16.3157 219.094L45.8473 219.077L46.2682 204.156L48.1665 166.147L49.9016 203.315L50.6918 219.094H78.7031Z" fill="white" stroke="#333333" stroke-miterlimit="10"/>
<path d="M37.0685 70.096C37.0685 70.096 19.0043 70.8347 20.1725 92.6613H29.9562L29.9905 131.487H65.0712L65.0368 92.8159H73.4633C73.4633 92.8159 73.5234 89.088 72.2006 84.6213C70.8177 79.9656 67.7425 76.1002 63.7225 73.6178C62.2966 72.7331 60.0289 71.7882 57.83 71.0924C55.7169 70.4224 53.5179 70.0874 51.3018 70.0874H37.0685V70.096Z" fill="#A09686"/>
<path d="M36.2525 43.8543C41.153 43.8543 45.1256 39.8816 45.1256 34.9811C45.1256 30.0805 41.153 26.1078 36.2525 26.1078C31.3519 26.1078 27.3793 30.0805 27.3793 34.9811C27.3793 39.8816 31.3519 43.8543 36.2525 43.8543Z" fill="#0048BE"/>
<path d="M45.8042 67.6823C47.0583 68.2836 48.4585 68.6186 49.936 68.6186H50.5114C55.8113 68.6186 60.1405 64.2808 60.1405 58.9895V54.0246C60.1405 48.7247 55.8027 44.3954 50.5114 44.3954H49.936C45.5466 44.3954 41.8186 47.3761 40.6676 51.4047C40.6676 51.4047 39.7742 51.0869 39.2674 51.0869C37.4636 51.0869 36.0033 52.5471 36.0033 54.351C36.0033 56.1548 37.4636 58.7404 39.2674 58.7404C39.6282 58.7404 39.9804 58.6373 40.2982 58.4569V71.8999C40.2982 71.8999 47.9774 75.8598 53.5006 71.8999V68.129" fill="white"/>
<path d="M45.8042 67.6823C47.0583 68.2836 48.4585 68.6186 49.936 68.6186H50.5114C55.8113 68.6186 60.1405 64.2808 60.1405 58.9895V54.0246C60.1405 48.7247 55.8027 44.3954 50.5114 44.3954H49.936C45.5466 44.3954 41.8186 47.3761 40.6676 51.4047C40.6676 51.4047 39.7742 51.0869 39.2674 51.0869C37.4636 51.0869 36.0033 52.5471 36.0033 54.351C36.0033 56.1548 37.4636 58.7404 39.2674 58.7404C39.6282 58.7404 39.9804 58.6373 40.2982 58.4569V71.8999C40.2982 71.8999 47.9774 75.8598 53.5006 71.8999V68.129" stroke="#333333" stroke-miterlimit="10"/>
<path d="M61.893 44.447C61.893 44.447 62.2709 50.3396 62.52 52.1435C62.7691 53.9473 57.4607 52.4956 56.1551 48.6131V51.7655C56.1551 52.4699 55.5967 53.0626 54.8923 53.0797C53.2431 53.1227 50.3655 52.5214 48.6647 48.3468C48.6647 48.3468 46.629 44.4728 44.5331 49.0082C42.6691 53.0368 45.5639 55.1155 42.8324 55.064C42.1366 55.0554 41.9906 54.0847 41.7758 53.0368C41.3292 50.8636 38.1337 50.7863 37.73 52.9681C37.3091 55.2615 41.2003 55.9315 42.3943 57.9244C43.8373 60.3381 37.73 63.0524 34.818 54.9952C31.9147 46.9295 33.8045 38.7434 38.2711 35.4364C42.3513 32.4214 47.7886 30.5917 56.4213 34.7835C61.6095 37.3003 61.3948 41.1228 61.893 44.447Z" fill="#0048BE"/>
<path d="M102.316 69.9586C102.316 69.9586 97.1281 71.3072 98.0816 75.791L103.596 73.7638L102.334 69.9843" fill="white"/>
<path d="M102.316 69.9586C102.316 69.9586 97.1281 71.3072 98.0816 75.791L103.596 73.7638L102.334 69.9843" stroke="#333333" stroke-miterlimit="10" stroke-linecap="round" stroke-linejoin="round"/>
<path d="M115.141 131.874C132.205 131.874 146.038 118.04 146.038 100.976C146.038 83.9121 132.205 70.0789 115.141 70.0789C98.0767 70.0789 84.2435 83.9121 84.2435 100.976C84.2435 118.04 98.0767 131.874 115.141 131.874Z" fill="#0048BE"/>
<path d="M115.141 127.613C129.852 127.613 141.778 115.687 141.778 100.976C141.778 86.2651 129.852 74.3394 115.141 74.3394C100.43 74.3394 88.5039 86.2651 88.5039 100.976C88.5039 115.687 100.43 127.613 115.141 127.613Z" fill="#004292"/>
<path d="M104.198 89.1396L112.195 87.078C113.2 86.8203 114.256 86.6657 115.347 86.6056C116.438 86.5541 117.46 86.6829 118.414 86.9836C119.367 87.2928 120.217 87.8168 120.965 88.5727C121.703 89.3286 122.253 90.3679 122.597 91.7079C122.958 93.1252 122.846 94.4652 122.253 95.7365C121.661 97.0078 120.681 97.9956 119.315 98.6914L119.333 98.7687C121.128 98.5196 122.743 98.8288 124.186 99.6792C125.629 100.53 126.608 101.947 127.115 103.914C127.398 105.022 127.433 106.104 127.201 107.144C126.969 108.183 126.514 109.137 125.827 110.004C125.139 110.872 124.212 111.636 123.069 112.306C121.927 112.976 120.587 113.509 119.049 113.904L111.112 115.948L104.198 89.1396ZM109.953 100.186L115.45 98.7687C116.103 98.5969 116.747 98.3564 117.383 98.03C118.018 97.7036 118.56 97.2913 119.023 96.7759C119.487 96.2691 119.805 95.6678 119.994 94.972C120.174 94.2763 120.157 93.486 119.934 92.6012C119.711 91.7423 119.35 91.0637 118.86 90.5569C118.362 90.0501 117.778 89.6808 117.099 89.4574C116.421 89.2255 115.673 89.131 114.849 89.1653C114.024 89.1997 113.165 89.3372 112.289 89.5605L107.556 90.7802L109.953 100.186ZM113.225 112.916L118.302 111.61C119.29 111.353 120.2 111.018 121.051 110.597C121.901 110.176 122.605 109.669 123.164 109.085C123.722 108.492 124.126 107.814 124.358 107.041C124.59 106.268 124.59 105.417 124.349 104.481C123.894 102.711 122.949 101.552 121.532 100.985C120.114 100.418 118.293 100.427 116.094 100.993L110.528 102.428L113.225 112.916Z" fill="white"/>
<path d="M111.86 88.2719C111.628 88.3321 111.387 88.1946 111.327 87.9541L110.168 83.4617C110.107 83.2298 110.245 82.9892 110.485 82.9291C110.717 82.869 110.958 83.0064 111.018 83.2469L112.177 87.7394C112.229 87.9799 112.092 88.2118 111.86 88.2719Z" fill="white"/>
<path d="M119.505 117.993C119.273 118.053 119.032 117.915 118.972 117.675L117.812 113.182C117.752 112.95 117.89 112.71 118.13 112.65C118.371 112.59 118.603 112.727 118.663 112.968L119.822 117.46C119.883 117.692 119.745 117.932 119.505 117.993Z" fill="white"/>
<path d="M102.11 70.0187L111.129 67.4246C112.341 67.0724 113.603 67.7768 113.947 68.9879L116.472 77.655C116.824 78.8919 116.12 80.1632 114.883 80.524C113.646 80.8847 112.375 80.1718 112.014 78.9349L112.461 80.4896C112.796 81.6492 112.246 82.9291 111.121 83.3758C109.832 83.8826 108.424 83.1696 108.046 81.8898L108.037 81.864L107.668 80.5927C108.054 81.9241 107.187 83.2985 105.795 83.5218C104.627 83.7022 103.519 82.9119 103.193 81.7781L101.311 75.2413L100.676 72.8705" fill="white"/>
<path d="M102.11 70.0187L111.129 67.4246C112.341 67.0724 113.603 67.7768 113.947 68.9879L116.472 77.655C116.824 78.8919 116.12 80.1632 114.883 80.524C113.646 80.8847 112.375 80.1718 112.014 78.9349L112.461 80.4896C112.796 81.6492 112.246 82.9291 111.121 83.3758C109.832 83.8826 108.424 83.1696 108.046 81.8898L108.037 81.864L107.668 80.5927C108.054 81.9241 107.187 83.2985 105.795 83.5218C104.627 83.7022 103.519 82.9119 103.193 81.7781L101.311 75.2413L100.676 72.8705" stroke="#333333" stroke-miterlimit="10" stroke-linecap="round"/>
<path d="M108.054 81.8897L105.752 73.9099" stroke="#333333" stroke-miterlimit="10" stroke-linecap="round" stroke-linejoin="round"/>
<path d="M112.495 80.5927L110.202 72.6129" stroke="#333333" stroke-miterlimit="10" stroke-linecap="round" stroke-linejoin="round"/>
<path d="M102.703 69.8383C102.703 69.8383 101.689 70.1562 101.354 70.3108L102.703 69.8383Z" fill="white"/>
<path d="M102.703 69.8383C102.703 69.8383 101.689 70.1562 101.354 70.3108" stroke="#333333" stroke-miterlimit="10" stroke-linecap="round" stroke-linejoin="round"/>
<path d="M117.709 112.968C117.323 111.963 116.206 111.473 115.201 111.868L116.541 111.344C117.537 110.958 118.027 109.824 117.64 108.836C117.254 107.839 116.137 107.35 115.149 107.728L115.132 107.736L114.102 108.14C115.107 107.754 115.588 106.62 115.201 105.632C114.814 104.627 113.698 104.137 112.693 104.532L107.316 106.628C108.321 106.242 108.819 105.116 108.424 104.111C108.037 103.115 106.903 102.625 105.907 103.012H105.915L93.5033 107.848L93.3572 107.917C84.6644 111.731 59.3074 119.676 46.0362 111.335C39.9891 107.53 36.8624 100.452 36.493 89.6979L20.8424 90.239C21.4007 106.371 27.0786 117.932 37.7299 124.615C44.1465 128.635 52.0749 130.654 61.4205 130.654C66.6002 130.654 72.2178 130.035 78.2564 128.79C90.1533 126.342 99.2669 122.279 99.6621 122.107L99.7651 122.055L116.61 115.493C117.606 115.089 118.096 113.973 117.709 112.968Z" fill="white" stroke="#333333" stroke-miterlimit="10" stroke-linecap="round"/>
<path d="M112.701 104.524L102.084 108.656" stroke="#333333" stroke-miterlimit="10" stroke-linecap="round"/>
<path d="M115.15 107.719L108.673 110.245" stroke="#333333" stroke-miterlimit="10" stroke-linecap="round"/>
<path d="M116.541 111.344L110.064 113.861" stroke="#333333" stroke-miterlimit="10" stroke-linecap="round"/>
<path d="M20.3185 87.1725L20.1639 92.6613H41.9648L40.5989 86.3393L20.3185 87.1725Z" fill="#A09686"/>
<path d="M256.709 79.0895L239.632 83.1524C240.68 87.6964 240.697 95.3327 238.327 96.9734C238.043 97.1709 231.515 101.268 206.003 85.4545L192.389 76.315H192.397C191.409 75.6536 190.061 75.9113 189.408 76.8991C188.747 77.8869 189.013 79.2269 190.001 79.8883L184.684 76.315C183.696 75.6536 182.364 75.9113 181.703 76.8991C181.041 77.8783 181.299 79.2183 182.287 79.8797L181.265 79.1926L181.248 79.184C180.268 78.5397 178.937 78.806 178.284 79.7853C177.623 80.7645 177.889 82.1131 178.868 82.7659L180.2 83.6592C179.212 82.9978 177.88 83.2555 177.219 84.2433C176.558 85.2312 176.815 86.5626 177.803 87.224L190.542 95.7708L190.267 96.1831C209.439 108.947 224.162 115.218 235.312 115.218C240.38 115.218 244.717 113.921 248.394 111.353C261.759 102.033 257.267 81.4087 256.709 79.0895Z" fill="white" stroke="#333333" stroke-miterlimit="10" stroke-linecap="round" stroke-linejoin="round"/>
<path d="M184.675 76.3236L195.163 83.3672" stroke="#333333" stroke-miterlimit="10" stroke-linecap="round"/>
<path d="M181.248 79.2012L187.647 83.4961" stroke="#333333" stroke-miterlimit="10" stroke-linecap="round"/>
<path d="M178.86 82.7831L185.268 87.078" stroke="#333333" stroke-miterlimit="10" stroke-linecap="round"/>
<path d="M289.453 219.111L280.623 129.511H245.808L235.131 198.908L233.027 219.085L256.82 219.077L258.624 201.88L262.61 165.898L266.192 203.925L267.36 219.094L289.453 219.111Z" fill="white" stroke="#333333" stroke-miterlimit="10"/>
<path d="M273.759 69.4088C273.759 69.4088 291.901 70.1561 290.733 92.0772H280.906V129.245H245.662V92.2318H237.201C237.201 92.2318 237.141 88.4867 238.473 84.0028C239.864 79.33 242.948 75.4388 246.985 72.9564C248.42 72.0716 250.696 71.1182 252.903 70.4224C255.025 69.7438 257.241 69.4088 259.466 69.4088H273.759Z" fill="#A09686"/>
<path d="M183.094 118.972C200.159 118.972 213.992 105.139 213.992 88.0744C213.992 71.0102 200.159 57.177 183.094 57.177C166.03 57.177 152.197 71.0102 152.197 88.0744C152.197 105.139 166.03 118.972 183.094 118.972Z" fill="#0048BE"/>
<path d="M183.094 114.711C197.806 114.711 209.731 102.785 209.731 88.0744C209.731 73.3632 197.806 61.4375 183.094 61.4375C168.383 61.4375 156.458 73.3632 156.458 88.0744C156.458 102.785 168.383 114.711 183.094 114.711Z" fill="#F5B908"/>
<path d="M178.894 72.5097L186.934 74.3909C187.948 74.6314 188.953 74.975 189.941 75.4388C190.928 75.9027 191.779 76.4868 192.483 77.1997C193.188 77.9127 193.694 78.7802 194.012 79.7852C194.321 80.7988 194.321 81.9756 194.004 83.3242C193.669 84.7501 192.938 85.884 191.83 86.7343C190.714 87.5847 189.391 88.0056 187.862 87.997L187.845 88.0743C189.545 88.6928 190.834 89.7064 191.719 91.1323C192.603 92.5582 192.81 94.259 192.346 96.2432C192.079 97.3599 191.616 98.3305 190.92 99.1466C190.233 99.9626 189.382 100.598 188.369 101.045C187.355 101.492 186.187 101.741 184.864 101.809C183.541 101.869 182.107 101.723 180.561 101.363L172.581 99.4901L178.894 72.5097ZM178.868 84.9649L184.392 86.2619C185.053 86.4165 185.74 86.4938 186.445 86.5024C187.149 86.511 187.828 86.3907 188.472 86.1588C189.116 85.9183 189.683 85.5404 190.164 85.0078C190.645 84.4752 190.997 83.7709 191.203 82.8776C191.409 82.0186 191.401 81.2455 191.203 80.5669C190.997 79.8883 190.654 79.2956 190.155 78.7716C189.666 78.2563 189.039 77.8182 188.291 77.4746C187.544 77.1224 186.719 76.8475 185.835 76.6414L181.076 75.5247L178.868 84.9649ZM175.862 97.7636L180.964 98.9576C181.952 99.1895 182.923 99.3184 183.868 99.3355C184.813 99.3527 185.671 99.2325 186.445 98.9748C187.218 98.7171 187.879 98.2962 188.446 97.7207C189.013 97.1451 189.4 96.3807 189.623 95.4444C190.044 93.6663 189.743 92.1974 188.747 91.0378C187.75 89.8782 186.144 89.0364 183.928 88.521L178.327 87.2068L175.862 97.7636Z" fill="white"/>
<path d="M186.084 75.3014C185.843 75.2499 185.697 75.0094 185.757 74.7689L186.814 70.2506C186.865 70.0101 187.106 69.8641 187.347 69.9242C187.587 69.9758 187.733 70.2163 187.673 70.4568L186.616 74.975C186.556 75.2069 186.316 75.353 186.084 75.3014Z" fill="white"/>
<path d="M179.075 105.168C178.834 105.116 178.688 104.876 178.748 104.635L179.805 100.117C179.856 99.8767 180.097 99.7307 180.337 99.7908C180.578 99.8509 180.724 100.083 180.664 100.323L179.607 104.842C179.547 105.082 179.306 105.228 179.075 105.168Z" fill="white"/>
<path d="M289.857 89.4745L272.308 89.9212V89.8181C272.308 90.1617 272.239 98.2447 265.625 102.394C260.102 105.864 245.972 109.102 212.48 93.9842L198.316 87.0694H198.324C197.251 86.5454 195.953 86.9921 195.438 88.0572C194.914 89.131 195.361 90.4108 196.434 90.9348L190.679 88.1259C189.606 87.602 188.326 88.04 187.802 89.1138C187.286 90.1789 187.716 91.4674 188.79 91.9913L187.69 91.4502L187.673 91.4416C186.616 90.9348 185.336 91.3815 184.821 92.438C184.306 93.5032 184.752 94.7916 185.809 95.3156L187.243 96.0199C186.17 95.496 184.89 95.934 184.366 97.0078C183.842 98.0815 184.28 99.3614 185.354 99.8853H185.345L199.991 107.032L199.982 107.058C220.615 117.615 238.834 122.811 253.282 122.811C261.992 122.811 269.336 120.896 275.28 117.056C287.142 109.403 290.029 96.1144 289.857 89.4745Z" fill="white" stroke="#333333" stroke-miterlimit="10" stroke-linecap="round" stroke-linejoin="round"/>
<path d="M190.671 88.1345L202.035 93.6749" stroke="#333333" stroke-miterlimit="10" stroke-linecap="round" stroke-linejoin="round"/>
<path d="M187.673 91.4416L194.605 94.826" stroke="#333333" stroke-miterlimit="10" stroke-linecap="round" stroke-linejoin="round"/>
<path d="M185.8 95.3242L192.732 98.6999" stroke="#333333" stroke-miterlimit="10" stroke-linecap="round" stroke-linejoin="round"/>
<path d="M270.203 86.5111C269.988 86.9406 270.985 92.4123 270.985 92.4123L290.415 92.0515L290.484 87.4388C290.484 87.4388 285.338 82.869 284.986 82.7917C284.634 82.7316 270.203 86.5111 270.203 86.5111Z" fill="#A09686"/>
<path d="M270.538 41.4148C270.538 41.4148 272.127 31.8115 256.228 34.921C249.407 36.2524 242.201 28.0062 242.201 28.0062C242.201 28.0062 233.972 55.9315 264.13 52.8049C264.13 52.8049 267.077 55.9659 272.024 55.4419C276.946 54.9179 278.827 51.7827 279.034 49.0168C279.317 45.2888 276.13 39.0956 270.538 41.4148Z" fill="#0048BE"/>
<path d="M264.156 65.406C264.156 65.406 262.266 67.8369 256.022 67.9228C249.777 68.0087 249.15 57.4433 249.081 52.633L249.021 48.1062C249.021 48.1062 254.364 48.9652 257.241 48.9308C259.363 48.905 262.181 48.8793 263.529 48.8793C263.976 48.8793 264.362 49.2143 264.414 49.6609C264.491 50.2966 264.603 51.2243 264.654 52.0317C264.697 52.6846 265.402 53.0711 265.969 52.7533C266.329 52.5557 266.673 52.2808 266.853 51.9201C266.853 51.9201 267.309 50.9838 268.7 50.9322C269.8 50.8979 270.787 51.6538 271.062 52.7189C271.964 56.172 268.391 58.6287 268.391 58.6287C268.391 58.6287 267.429 61.7639 270.805 62.683C270.805 62.683 271.002 70.7746 270.916 70.8519C268.305 73.2914 260.179 73.4031 257.259 71.0409L257.216 67.8884" fill="white"/>
<path d="M264.156 65.406C264.156 65.406 262.266 67.8369 256.022 67.9228C249.777 68.0087 249.15 57.4433 249.081 52.633L249.021 48.1062C249.021 48.1062 254.364 48.9652 257.241 48.9308C259.363 48.905 262.181 48.8793 263.529 48.8793C263.976 48.8793 264.362 49.2143 264.414 49.6609C264.491 50.2966 264.603 51.2243 264.654 52.0317C264.697 52.6846 265.402 53.0711 265.969 52.7533C266.329 52.5557 266.673 52.2808 266.853 51.9201C266.853 51.9201 267.309 50.9838 268.7 50.9322C269.8 50.8979 270.787 51.6538 271.062 52.7189C271.964 56.172 268.391 58.6287 268.391 58.6287C268.391 58.6287 267.429 61.7639 270.805 62.683C270.805 62.683 271.002 70.7746 270.916 70.8519C268.305 73.2914 260.179 73.4031 257.259 71.0409L257.216 67.8884" stroke="#333333" stroke-width="0.75" stroke-miterlimit="10" stroke-linecap="round" stroke-linejoin="round"/>
<path d="M270.804 62.6659L271.208 53.6982" stroke="#004292" stroke-width="0.75" stroke-miterlimit="10" stroke-linecap="round" stroke-linejoin="round"/>
<path d="M173.551 50.8464C173.122 37.9704 162.685 27.886 149.792 27.886C138.161 27.886 128.06 36.5444 126.299 48.0204L120.664 47.1528C122.846 32.9196 135.37 22.1824 149.792 22.1824C165.778 22.1824 178.714 34.6891 179.246 50.6574L173.551 50.8464Z" fill="#F5B908"/>
<path d="M142.328 39.6711L140.326 36.4757L124.607 46.3196L115.931 29.9218L112.598 31.6826L123.172 51.6624L142.328 39.6711Z" fill="#F5B908"/>
<path d="M149.775 170.742C133.789 170.742 120.853 158.236 120.321 142.267L126.016 142.078C126.445 154.954 136.882 165.039 149.775 165.039C161.406 165.039 171.507 156.38 173.268 144.904L178.903 145.772C176.721 160.014 164.197 170.742 149.775 170.742Z" fill="#F5B908"/>
<path d="M157.239 153.262L159.232 156.458L174.96 146.605L183.636 163.012L186.96 161.251L176.395 141.271L157.239 153.262Z" fill="#F5B908"/>
</svg>
